<mxfile host="65bd71144e" modified="2020-11-11T05:16:29.182Z" agent="5.0 (X11; Linux x86_64) AppleWebKit/537.36 (KHTML, like Gecko) Code/1.51.0 Chrome/83.0.4103.122 Electron/9.3.3 Safari/537.36" etag="31c94Wn1wiMwpEwtoEok" version="13.6.5">
    <diagram id="Qwb1rF_dMpi1wpGuuUVu" name="diagram">
        <mxGraphModel dx="545" dy="643" grid="1" gridSize="10" guides="1" tooltips="1" connect="1" arrows="1" fold="1" page="1" pageScale="1" pageWidth="850" pageHeight="1100" math="0" shadow="0">
            <root>
                <mxCell id="0"/>
                <mxCell id="1" parent="0"/>
                <mxCell id="3" value="" style="rounded=0;whiteSpace=wrap;html=1;" parent="1" vertex="1">
                    <mxGeometry x="55" y="40" width="675" height="1080" as="geometry"/>
                </mxCell>
                <mxCell id="G4ZIIX9ekKNboTHv59yJ-3" style="edgeStyle=orthogonalEdgeStyle;rounded=0;orthogonalLoop=1;jettySize=auto;html=1;" parent="1" source="G4ZIIX9ekKNboTHv59yJ-1" target="G4ZIIX9ekKNboTHv59yJ-4" edge="1">
                    <mxGeometry relative="1" as="geometry">
                        <mxPoint x="209.25" y="297" as="targetPoint"/>
                    </mxGeometry>
                </mxCell>
                <mxCell id="G4ZIIX9ekKNboTHv59yJ-8" style="edgeStyle=orthogonalEdgeStyle;rounded=0;orthogonalLoop=1;jettySize=auto;html=1;entryX=0.5;entryY=0;entryDx=0;entryDy=0;" parent="1" source="G4ZIIX9ekKNboTHv59yJ-1" target="G4ZIIX9ekKNboTHv59yJ-2" edge="1">
                    <mxGeometry relative="1" as="geometry"/>
                </mxCell>
                <mxCell id="G4ZIIX9ekKNboTHv59yJ-1" value="&lt;font color=&quot;#030303&quot;&gt;setup&lt;/font&gt;" style="rounded=1;whiteSpace=wrap;html=1;fillColor=#fff2cc;strokeColor=#d6b656;" parent="1" vertex="1">
                    <mxGeometry x="149.25" y="197" width="120" height="60" as="geometry"/>
                </mxCell>
                <mxCell id="313" style="edgeStyle=orthogonalEdgeStyle;rounded=0;orthogonalLoop=1;jettySize=auto;html=1;entryX=0.5;entryY=0;entryDx=0;entryDy=0;" parent="1" source="G4ZIIX9ekKNboTHv59yJ-2" target="305" edge="1">
                    <mxGeometry relative="1" as="geometry"/>
                </mxCell>
                <mxCell id="G4ZIIX9ekKNboTHv59yJ-2" value="&lt;span style=&quot;background-color: rgb(255 , 242 , 204)&quot;&gt;&lt;font color=&quot;#030303&quot;&gt;loop&lt;/font&gt;&lt;/span&gt;" style="rounded=1;whiteSpace=wrap;html=1;fillColor=#fff2cc;strokeColor=#d6b656;" parent="1" vertex="1">
                    <mxGeometry x="149.25" y="327" width="120" height="60" as="geometry"/>
                </mxCell>
                <mxCell id="G4ZIIX9ekKNboTHv59yJ-5" style="edgeStyle=orthogonalEdgeStyle;rounded=0;orthogonalLoop=1;jettySize=auto;html=1;entryX=0.5;entryY=0;entryDx=0;entryDy=0;exitX=0.5;exitY=1;exitDx=0;exitDy=0;" parent="1" source="7" target="G4ZIIX9ekKNboTHv59yJ-2" edge="1">
                    <mxGeometry relative="1" as="geometry">
                        <mxPoint x="720.75" y="247" as="sourcePoint"/>
                        <Array as="points">
                            <mxPoint x="555.75" y="287"/>
                            <mxPoint x="209.75" y="287"/>
                        </Array>
                    </mxGeometry>
                </mxCell>
                <mxCell id="8" value="" style="edgeStyle=orthogonalEdgeStyle;rounded=0;orthogonalLoop=1;jettySize=auto;html=1;" parent="1" source="G4ZIIX9ekKNboTHv59yJ-4" target="7" edge="1">
                    <mxGeometry relative="1" as="geometry"/>
                </mxCell>
                <mxCell id="G4ZIIX9ekKNboTHv59yJ-4" value="Definir 10 pines de salida" style="rounded=0;whiteSpace=wrap;html=1;" parent="1" vertex="1">
                    <mxGeometry x="314.25" y="207" width="120" height="40" as="geometry"/>
                </mxCell>
                <mxCell id="7" value="Iniciar Serial(9600)" style="rounded=0;whiteSpace=wrap;html=1;" parent="1" vertex="1">
                    <mxGeometry x="482.5" y="207" width="146.5" height="40" as="geometry"/>
                </mxCell>
                <mxCell id="G4ZIIX9ekKNboTHv59yJ-12" value="" style="edgeStyle=orthogonalEdgeStyle;rounded=0;orthogonalLoop=1;jettySize=auto;html=1;" parent="1" edge="1">
                    <mxGeometry relative="1" as="geometry">
                        <mxPoint x="298.5" y="440" as="sourcePoint"/>
                    </mxGeometry>
                </mxCell>
                <mxCell id="2" value="&lt;span style=&quot;font-size: 24px&quot;&gt;&lt;b&gt;&lt;u&gt;Procesador de Señales&lt;/u&gt;&lt;/b&gt;&lt;/span&gt;" style="text;html=1;strokeColor=none;fillColor=none;align=center;verticalAlign=middle;whiteSpace=wrap;rounded=0;" parent="1" vertex="1">
                    <mxGeometry x="238.75" y="70" width="307.5" height="60" as="geometry"/>
                </mxCell>
                <mxCell id="6" value="@okarook" style="text;html=1;strokeColor=none;fillColor=none;align=center;verticalAlign=middle;whiteSpace=wrap;rounded=0;" parent="1" vertex="1">
                    <mxGeometry x="650" y="1080" width="50" height="20" as="geometry"/>
                </mxCell>
                <mxCell id="97" style="edgeStyle=orthogonalEdgeStyle;rounded=0;orthogonalLoop=1;jettySize=auto;html=1;entryX=0;entryY=0.5;entryDx=0;entryDy=0;" parent="1" edge="1">
                    <mxGeometry relative="1" as="geometry">
                        <mxPoint x="554" y="797.5" as="sourcePoint"/>
                    </mxGeometry>
                </mxCell>
                <mxCell id="103" style="edgeStyle=orthogonalEdgeStyle;rounded=0;orthogonalLoop=1;jettySize=auto;html=1;entryX=0;entryY=0.5;entryDx=0;entryDy=0;" parent="1" edge="1">
                    <mxGeometry relative="1" as="geometry">
                        <mxPoint x="390" y="797.5" as="sourcePoint"/>
                    </mxGeometry>
                </mxCell>
                <mxCell id="315" style="edgeStyle=orthogonalEdgeStyle;rounded=0;orthogonalLoop=1;jettySize=auto;html=1;entryX=0.5;entryY=0;entryDx=0;entryDy=0;exitX=0.5;exitY=1;exitDx=0;exitDy=0;" parent="1" target="323" edge="1">
                    <mxGeometry relative="1" as="geometry">
                        <mxPoint x="209.25" y="639" as="targetPoint"/>
                        <mxPoint x="209.25" y="567" as="sourcePoint"/>
                    </mxGeometry>
                </mxCell>
                <mxCell id="262" style="edgeStyle=orthogonalEdgeStyle;rounded=0;orthogonalLoop=1;jettySize=auto;html=1;" parent="1" edge="1">
                    <mxGeometry relative="1" as="geometry">
                        <mxPoint x="231" y="869.5" as="sourcePoint"/>
                    </mxGeometry>
                </mxCell>
                <mxCell id="268" style="edgeStyle=orthogonalEdgeStyle;rounded=0;orthogonalLoop=1;jettySize=auto;html=1;entryX=0;entryY=0.5;entryDx=0;entryDy=0;" parent="1" edge="1">
                    <mxGeometry relative="1" as="geometry">
                        <mxPoint x="580" y="869.5" as="sourcePoint"/>
                    </mxGeometry>
                </mxCell>
                <mxCell id="275" style="edgeStyle=orthogonalEdgeStyle;rounded=0;orthogonalLoop=1;jettySize=auto;html=1;entryX=0;entryY=0.5;entryDx=0;entryDy=0;" parent="1" edge="1">
                    <mxGeometry relative="1" as="geometry">
                        <mxPoint x="289.5" y="1029.5" as="targetPoint"/>
                    </mxGeometry>
                </mxCell>
                <mxCell id="282" style="edgeStyle=orthogonalEdgeStyle;rounded=0;orthogonalLoop=1;jettySize=auto;html=1;entryX=0;entryY=0.5;entryDx=0;entryDy=0;" parent="1" edge="1">
                    <mxGeometry relative="1" as="geometry">
                        <mxPoint x="460" y="1029.5" as="targetPoint"/>
                    </mxGeometry>
                </mxCell>
                <mxCell id="322" style="edgeStyle=orthogonalEdgeStyle;rounded=0;orthogonalLoop=1;jettySize=auto;html=1;entryX=0;entryY=0.5;entryDx=0;entryDy=0;exitX=0.5;exitY=1;exitDx=0;exitDy=0;" parent="1" source="352" target="G4ZIIX9ekKNboTHv59yJ-2" edge="1">
                    <mxGeometry relative="1" as="geometry">
                        <Array as="points">
                            <mxPoint x="405" y="1080"/>
                            <mxPoint x="100" y="1080"/>
                            <mxPoint x="100" y="357"/>
                        </Array>
                        <mxPoint x="149.25" y="820" as="sourcePoint"/>
                    </mxGeometry>
                </mxCell>
                <mxCell id="356" style="edgeStyle=orthogonalEdgeStyle;rounded=0;orthogonalLoop=1;jettySize=auto;html=1;" edge="1" parent="1" source="305" target="323">
                    <mxGeometry relative="1" as="geometry"/>
                </mxCell>
                <mxCell id="305" value="Lectura análoga" style="whiteSpace=wrap;html=1;rounded=0;" parent="1" vertex="1">
                    <mxGeometry x="149.25" y="437" width="120" height="40" as="geometry"/>
                </mxCell>
                <mxCell id="351" style="edgeStyle=orthogonalEdgeStyle;rounded=0;orthogonalLoop=1;jettySize=auto;html=1;entryX=0;entryY=0.5;entryDx=0;entryDy=0;" edge="1" parent="1" source="307" target="316">
                    <mxGeometry relative="1" as="geometry">
                        <Array as="points">
                            <mxPoint x="404.75" y="785"/>
                        </Array>
                    </mxGeometry>
                </mxCell>
                <mxCell id="307" value="Apagar LEDs" style="whiteSpace=wrap;html=1;rounded=0;" parent="1" vertex="1">
                    <mxGeometry x="344.5" y="695" width="120" height="40" as="geometry"/>
                </mxCell>
                <mxCell id="355" style="edgeStyle=orthogonalEdgeStyle;rounded=0;orthogonalLoop=1;jettySize=auto;html=1;entryX=1;entryY=0.5;entryDx=0;entryDy=0;" edge="1" parent="1" source="316" target="352">
                    <mxGeometry relative="1" as="geometry">
                        <Array as="points">
                            <mxPoint x="535.75" y="1030"/>
                        </Array>
                    </mxGeometry>
                </mxCell>
                <mxCell id="316" value="" style="ellipse;whiteSpace=wrap;html=1;aspect=fixed;" parent="1" vertex="1">
                    <mxGeometry x="530.75" y="780" width="10" height="10" as="geometry"/>
                </mxCell>
                <mxCell id="327" value="" style="edgeStyle=orthogonalEdgeStyle;rounded=0;orthogonalLoop=1;jettySize=auto;html=1;entryX=0;entryY=0.5;entryDx=0;entryDy=0;" edge="1" parent="1" source="323" target="329">
                    <mxGeometry relative="1" as="geometry">
                        <mxPoint x="341.75" y="596.5" as="targetPoint"/>
                    </mxGeometry>
                </mxCell>
                <mxCell id="346" style="edgeStyle=orthogonalEdgeStyle;rounded=0;orthogonalLoop=1;jettySize=auto;html=1;entryX=0.5;entryY=0;entryDx=0;entryDy=0;" edge="1" parent="1" source="323" target="342">
                    <mxGeometry relative="1" as="geometry"/>
                </mxCell>
                <mxCell id="323" value="Lectura PIN&amp;nbsp;&lt;br&gt;es &quot;ALL&quot;" style="rhombus;whiteSpace=wrap;html=1;" vertex="1" parent="1">
                    <mxGeometry x="152.25" y="549" width="114" height="95" as="geometry"/>
                </mxCell>
                <mxCell id="324" value="Si" style="text;html=1;strokeColor=none;fillColor=none;align=center;verticalAlign=middle;whiteSpace=wrap;rounded=0;" vertex="1" parent="1">
                    <mxGeometry x="264.75" y="576.5" width="40" height="20" as="geometry"/>
                </mxCell>
                <mxCell id="325" value="No" style="text;html=1;strokeColor=none;fillColor=none;align=center;verticalAlign=middle;whiteSpace=wrap;rounded=0;" vertex="1" parent="1">
                    <mxGeometry x="210.75" y="644" width="40" height="20" as="geometry"/>
                </mxCell>
                <mxCell id="336" style="edgeStyle=orthogonalEdgeStyle;rounded=0;orthogonalLoop=1;jettySize=auto;html=1;entryX=0;entryY=0.5;entryDx=0;entryDy=0;" edge="1" parent="1" source="329" target="335">
                    <mxGeometry relative="1" as="geometry"/>
                </mxCell>
                <mxCell id="337" style="edgeStyle=orthogonalEdgeStyle;rounded=0;orthogonalLoop=1;jettySize=auto;html=1;entryX=0.5;entryY=0;entryDx=0;entryDy=0;" edge="1" parent="1" source="329" target="307">
                    <mxGeometry relative="1" as="geometry"/>
                </mxCell>
                <mxCell id="329" value="Lectura&lt;br&gt;ACTION&lt;br&gt;es &quot;ON&quot;" style="rhombus;whiteSpace=wrap;html=1;" vertex="1" parent="1">
                    <mxGeometry x="347.5" y="549" width="114" height="95" as="geometry"/>
                </mxCell>
                <mxCell id="331" value="Si" style="text;html=1;strokeColor=none;fillColor=none;align=center;verticalAlign=middle;whiteSpace=wrap;rounded=0;" vertex="1" parent="1">
                    <mxGeometry x="450.75" y="569" width="40" height="20" as="geometry"/>
                </mxCell>
                <mxCell id="333" value="No" style="text;html=1;strokeColor=none;fillColor=none;align=center;verticalAlign=middle;whiteSpace=wrap;rounded=0;" vertex="1" parent="1">
                    <mxGeometry x="410.75" y="644" width="40" height="20" as="geometry"/>
                </mxCell>
                <mxCell id="339" style="edgeStyle=orthogonalEdgeStyle;rounded=0;orthogonalLoop=1;jettySize=auto;html=1;entryX=1;entryY=0.5;entryDx=0;entryDy=0;" edge="1" parent="1" source="335" target="316">
                    <mxGeometry relative="1" as="geometry">
                        <Array as="points">
                            <mxPoint x="620.75" y="785"/>
                        </Array>
                    </mxGeometry>
                </mxCell>
                <mxCell id="335" value="Encender LEDs" style="whiteSpace=wrap;html=1;rounded=0;" vertex="1" parent="1">
                    <mxGeometry x="560.75" y="576.5" width="120" height="40" as="geometry"/>
                </mxCell>
                <mxCell id="353" style="edgeStyle=orthogonalEdgeStyle;rounded=0;orthogonalLoop=1;jettySize=auto;html=1;entryX=0;entryY=0.5;entryDx=0;entryDy=0;" edge="1" parent="1" source="341" target="352">
                    <mxGeometry relative="1" as="geometry"/>
                </mxCell>
                <mxCell id="341" value="Apagar LED - Pin" style="whiteSpace=wrap;html=1;rounded=0;" vertex="1" parent="1">
                    <mxGeometry x="149.25" y="1010" width="120" height="40" as="geometry"/>
                </mxCell>
                <mxCell id="347" style="edgeStyle=orthogonalEdgeStyle;rounded=0;orthogonalLoop=1;jettySize=auto;html=1;entryX=0.5;entryY=0;entryDx=0;entryDy=0;" edge="1" parent="1" source="342" target="341">
                    <mxGeometry relative="1" as="geometry"/>
                </mxCell>
                <mxCell id="348" style="edgeStyle=orthogonalEdgeStyle;rounded=0;orthogonalLoop=1;jettySize=auto;html=1;entryX=0;entryY=0.5;entryDx=0;entryDy=0;" edge="1" parent="1" source="342" target="345">
                    <mxGeometry relative="1" as="geometry"/>
                </mxCell>
                <mxCell id="342" value="Lectura&lt;br&gt;ACTION&lt;br&gt;es &quot;ON&quot;" style="rhombus;whiteSpace=wrap;html=1;" vertex="1" parent="1">
                    <mxGeometry x="152.25" y="840" width="114" height="95" as="geometry"/>
                </mxCell>
                <mxCell id="343" value="Si" style="text;html=1;strokeColor=none;fillColor=none;align=center;verticalAlign=middle;whiteSpace=wrap;rounded=0;" vertex="1" parent="1">
                    <mxGeometry x="264.75" y="867.5" width="40" height="20" as="geometry"/>
                </mxCell>
                <mxCell id="344" value="No" style="text;html=1;strokeColor=none;fillColor=none;align=center;verticalAlign=middle;whiteSpace=wrap;rounded=0;" vertex="1" parent="1">
                    <mxGeometry x="210.75" y="935" width="40" height="20" as="geometry"/>
                </mxCell>
                <mxCell id="354" style="edgeStyle=orthogonalEdgeStyle;rounded=0;orthogonalLoop=1;jettySize=auto;html=1;entryX=0.5;entryY=0;entryDx=0;entryDy=0;" edge="1" parent="1" source="345" target="352">
                    <mxGeometry relative="1" as="geometry"/>
                </mxCell>
                <mxCell id="345" value="Encender LED - Pin" style="whiteSpace=wrap;html=1;rounded=0;" vertex="1" parent="1">
                    <mxGeometry x="344.5" y="867.5" width="120" height="40" as="geometry"/>
                </mxCell>
                <mxCell id="352" value="" style="ellipse;whiteSpace=wrap;html=1;aspect=fixed;" vertex="1" parent="1">
                    <mxGeometry x="399.5" y="1025" width="10" height="10" as="geometry"/>
                </mxCell>
            </root>
        </mxGraphModel>
    </diagram>
</mxfile>
